<svg xmlns="http://www.w3.org/2000/svg" viewBox="0 0 799.56 673.31"><defs><style>.cls-1{fill:#d1d95f;}.cls-2{fill:#c0c757;}.cls-3{fill:#d5d99c;}.cls-4{fill:#9da600;}.cls-5{fill:#cccccf;}.cls-6{fill:#0e70ad;}.cls-7{fill:#0092ff;}.cls-8{fill:#56b9e1;}</style></defs><title>lodkaРесурс 1</title><g id="Слой_2" data-name="Слой 2"><g id="Слой_1-2" data-name="Слой 1"><rect class="cls-1" x="462.9" width="42.08" height="42.08"/><rect class="cls-1" x="420.82" width="42.08" height="42.08"/><rect class="cls-1" x="420.82" y="42.08" width="42.08" height="42.08"/><rect class="cls-2" x="420.82" y="84.16" width="42.08" height="42.08"/><rect class="cls-2" x="420.82" y="126.25" width="42.08" height="42.08"/><rect class="cls-1" x="420.82" y="168.33" width="42.08" height="42.08"/><rect class="cls-2" x="378.74" y="168.33" width="42.08" height="42.08"/><rect class="cls-2" x="336.66" y="168.33" width="42.08" height="42.08"/><rect class="cls-3" x="462.9" y="168.33" width="42.08" height="42.08"/><rect class="cls-1" x="504.98" y="168.33" width="42.08" height="42.08"/><rect class="cls-1" x="420.82" y="210.41" width="42.08" height="42.08"/><rect class="cls-2" x="378.74" y="210.41" width="42.08" height="42.08"/><rect class="cls-2" x="336.66" y="210.41" width="42.08" height="42.08"/><rect class="cls-3" x="462.9" y="210.41" width="42.08" height="42.08"/><rect class="cls-1" x="504.98" y="210.41" width="42.08" height="42.08"/><rect class="cls-2" x="420.82" y="252.49" width="42.08" height="42.08"/><rect class="cls-4" x="378.74" y="252.49" width="42.08" height="42.08"/><rect class="cls-2" x="336.66" y="252.49" width="42.08" height="42.08"/><rect class="cls-2" x="462.9" y="252.49" width="42.08" height="42.08"/><rect class="cls-2" x="504.98" y="252.49" width="42.08" height="42.08"/><rect class="cls-1" x="294.57" y="294.57" width="42.08" height="42.08"/><rect class="cls-1" x="252.49" y="294.57" width="42.08" height="42.08"/><rect class="cls-1" x="210.41" y="294.57" width="42.08" height="42.08"/><rect class="cls-5" x="631.23" y="294.57" width="42.08" height="42.08"/><rect class="cls-1" x="589.15" y="294.57" width="42.08" height="42.08"/><rect class="cls-1" x="547.07" y="294.57" width="42.08" height="42.08"/><rect class="cls-6" x="673.31" y="294.57" width="42.08" height="42.08"/><rect class="cls-6" x="715.39" y="294.57" width="42.08" height="42.08"/><rect class="cls-1" x="420.82" y="294.57" width="42.08" height="42.08"/><rect class="cls-1" x="378.74" y="294.57" width="42.08" height="42.08"/><rect class="cls-1" x="336.66" y="294.57" width="42.08" height="42.08"/><rect class="cls-1" x="462.9" y="294.57" width="42.08" height="42.08"/><rect class="cls-1" x="504.98" y="294.57" width="42.08" height="42.08"/><rect class="cls-1" x="252.49" y="336.66" width="42.08" height="42.08"/><rect class="cls-1" x="210.41" y="336.66" width="42.08" height="42.08"/><rect class="cls-1" x="168.33" y="336.66" width="42.08" height="42.08"/><rect class="cls-5" x="589.15" y="336.66" width="42.08" height="42.08"/><rect class="cls-1" x="547.07" y="336.66" width="42.08" height="42.08"/><rect class="cls-1" x="504.98" y="336.66" width="42.08" height="42.08"/><rect class="cls-7" x="631.23" y="336.66" width="42.08" height="42.08"/><rect class="cls-7" x="673.31" y="336.66" width="42.08" height="42.08"/><rect class="cls-1" x="378.74" y="336.66" width="42.08" height="42.08"/><rect class="cls-1" x="336.66" y="336.66" width="42.08" height="42.08"/><rect class="cls-1" x="294.57" y="336.66" width="42.08" height="42.08"/><rect class="cls-1" x="420.82" y="336.66" width="42.08" height="42.08"/><rect class="cls-1" x="462.9" y="336.66" width="42.08" height="42.08"/><rect class="cls-8" x="715.39" y="336.66" width="42.08" height="42.08"/><rect class="cls-6" x="757.47" y="336.66" width="42.08" height="42.08"/><rect class="cls-3" x="252.49" y="378.74" width="42.08" height="42.08"/><rect class="cls-1" x="210.41" y="378.74" width="42.08" height="42.08"/><rect class="cls-1" x="168.33" y="378.74" width="42.08" height="42.08"/><rect class="cls-5" x="589.15" y="378.74" width="42.08" height="42.08"/><rect class="cls-3" x="547.07" y="378.74" width="42.08" height="42.08"/><rect class="cls-3" x="504.98" y="378.74" width="42.08" height="42.08"/><rect class="cls-7" x="631.23" y="378.74" width="42.08" height="42.08"/><rect class="cls-7" x="673.31" y="378.74" width="42.08" height="42.08"/><rect class="cls-5" x="378.74" y="378.74" width="42.08" height="42.08"/><rect class="cls-1" x="336.66" y="378.74" width="42.08" height="42.08"/><rect class="cls-3" x="294.57" y="378.74" width="42.08" height="42.08"/><rect class="cls-5" x="420.82" y="378.74" width="42.08" height="42.08"/><rect class="cls-1" x="462.9" y="378.74" width="42.08" height="42.08"/><rect class="cls-7" x="715.39" y="378.74" width="42.08" height="42.08"/><rect class="cls-6" x="757.47" y="378.74" width="42.08" height="42.08"/><rect class="cls-3" x="252.49" y="420.82" width="42.08" height="42.08"/><rect class="cls-1" x="210.41" y="420.82" width="42.08" height="42.08"/><rect class="cls-1" x="168.33" y="420.82" width="42.08" height="42.08"/><rect class="cls-5" x="589.15" y="420.82" width="42.08" height="42.08"/><rect class="cls-3" x="547.07" y="420.82" width="42.08" height="42.08"/><rect class="cls-1" x="504.98" y="420.82" width="42.08" height="42.08"/><rect class="cls-6" x="631.23" y="420.82" width="42.08" height="42.08"/><rect class="cls-6" x="673.31" y="420.82" width="42.08" height="42.08"/><rect class="cls-6" x="378.74" y="420.82" width="42.08" height="42.08"/><rect class="cls-5" x="336.66" y="420.82" width="42.08" height="42.08"/><rect class="cls-1" x="294.57" y="420.82" width="42.08" height="42.08"/><rect class="cls-8" x="420.82" y="420.82" width="42.08" height="42.08"/><rect class="cls-5" x="462.9" y="420.82" width="42.08" height="42.08"/><rect class="cls-7" x="715.39" y="420.82" width="42.08" height="42.08"/><rect class="cls-6" x="757.47" y="420.82" width="42.08" height="42.08"/><rect class="cls-1" x="252.49" y="462.9" width="42.08" height="42.08"/><rect class="cls-1" x="210.41" y="462.9" width="42.08" height="42.08"/><rect class="cls-1" x="168.33" y="462.9" width="42.08" height="42.08"/><rect class="cls-5" x="589.15" y="462.9" width="42.08" height="42.08"/><rect class="cls-1" x="547.07" y="462.9" width="42.08" height="42.08"/><rect class="cls-1" x="504.98" y="462.9" width="42.08" height="42.08"/><rect class="cls-6" x="631.23" y="462.9" width="42.08" height="42.08"/><rect class="cls-6" x="673.31" y="462.9" width="42.08" height="42.08"/><rect class="cls-6" x="378.74" y="462.9" width="42.08" height="42.08"/><rect class="cls-5" x="336.66" y="462.9" width="42.08" height="42.08"/><rect class="cls-1" x="294.57" y="462.9" width="42.08" height="42.08"/><rect class="cls-6" x="420.82" y="462.9" width="42.08" height="42.08"/><rect class="cls-5" x="462.9" y="462.9" width="42.08" height="42.08"/><rect class="cls-7" x="715.39" y="462.9" width="42.08" height="42.08"/><rect class="cls-6" x="757.47" y="462.9" width="42.08" height="42.08"/><rect class="cls-2" x="252.49" y="504.98" width="42.08" height="42.08"/><rect class="cls-2" x="210.41" y="504.98" width="42.08" height="42.08"/><rect class="cls-2" x="168.33" y="504.98" width="42.08" height="42.08"/><rect class="cls-2" x="589.15" y="504.98" width="42.08" height="42.08"/><rect class="cls-2" x="547.07" y="504.98" width="42.08" height="42.08"/><rect class="cls-2" x="504.98" y="504.98" width="42.08" height="42.08"/><rect class="cls-5" x="631.23" y="504.98" width="42.08" height="42.08"/><rect class="cls-5" x="673.31" y="504.98" width="42.08" height="42.08"/><rect class="cls-5" x="378.74" y="504.98" width="42.08" height="42.08"/><rect class="cls-2" x="336.66" y="504.98" width="42.08" height="42.08"/><rect class="cls-2" x="294.57" y="504.98" width="42.08" height="42.08"/><rect class="cls-5" x="420.82" y="504.98" width="42.08" height="42.08"/><rect class="cls-2" x="462.9" y="504.98" width="42.08" height="42.08"/><rect class="cls-5" x="715.39" y="504.98" width="42.08" height="42.08"/><rect class="cls-5" x="757.47" y="504.98" width="42.08" height="42.08"/><rect class="cls-2" x="252.49" y="547.07" width="42.08" height="42.08"/><rect class="cls-2" x="210.41" y="547.07" width="42.08" height="42.08"/><rect class="cls-4" x="168.33" y="547.07" width="42.08" height="42.08"/><rect class="cls-2" x="589.15" y="547.07" width="42.08" height="42.08"/><rect class="cls-2" x="547.07" y="547.07" width="42.08" height="42.08"/><rect class="cls-2" x="504.98" y="547.07" width="42.08" height="42.08"/><rect class="cls-2" x="631.23" y="547.07" width="42.08" height="42.08"/><rect class="cls-2" x="673.31" y="547.07" width="42.08" height="42.08"/><rect class="cls-2" x="378.74" y="547.07" width="42.08" height="42.08"/><rect class="cls-2" x="336.66" y="547.07" width="42.08" height="42.08"/><rect class="cls-2" x="294.57" y="547.07" width="42.08" height="42.08"/><rect class="cls-2" x="420.82" y="547.07" width="42.08" height="42.08"/><rect class="cls-2" x="462.9" y="547.07" width="42.08" height="42.08"/><rect class="cls-4" x="715.39" y="547.07" width="42.08" height="42.08"/><rect class="cls-4" x="757.47" y="547.07" width="42.08" height="42.08"/><rect class="cls-4" x="252.49" y="589.15" width="42.08" height="42.08"/><rect class="cls-4" x="210.41" y="589.15" width="42.08" height="42.08"/><rect class="cls-4" x="589.15" y="589.15" width="42.08" height="42.08"/><rect class="cls-4" x="547.07" y="589.15" width="42.08" height="42.08"/><rect class="cls-4" x="504.98" y="589.15" width="42.08" height="42.08"/><rect class="cls-4" x="631.23" y="589.15" width="42.08" height="42.08"/><rect class="cls-4" x="673.31" y="589.15" width="42.08" height="42.08"/><rect class="cls-4" x="378.74" y="589.15" width="42.08" height="42.08"/><rect class="cls-4" x="336.66" y="589.15" width="42.08" height="42.08"/><rect class="cls-4" x="294.57" y="589.15" width="42.08" height="42.08"/><rect class="cls-4" x="420.82" y="589.15" width="42.08" height="42.08"/><rect class="cls-4" x="462.9" y="589.15" width="42.08" height="42.08"/><rect class="cls-4" x="715.39" y="589.15" width="42.08" height="42.08"/><rect class="cls-4" x="252.49" y="631.23" width="42.08" height="42.08"/><rect class="cls-4" x="589.15" y="631.23" width="42.08" height="42.08"/><rect class="cls-4" x="547.07" y="631.23" width="42.08" height="42.08"/><rect class="cls-4" x="504.98" y="631.23" width="42.08" height="42.08"/><rect class="cls-4" x="631.23" y="631.23" width="42.08" height="42.08"/><rect class="cls-4" x="673.31" y="631.23" width="42.08" height="42.08"/><rect class="cls-4" x="378.74" y="631.23" width="42.08" height="42.08"/><rect class="cls-4" x="336.66" y="631.23" width="42.08" height="42.08"/><rect class="cls-4" x="294.57" y="631.23" width="42.08" height="42.08"/><rect class="cls-4" x="420.82" y="631.23" width="42.08" height="42.08"/><rect class="cls-4" x="462.9" y="631.23" width="42.08" height="42.08"/><rect class="cls-2" x="126.25" y="378.74" width="42.08" height="42.08"/><rect class="cls-2" x="126.25" y="420.82" width="42.08" height="42.08"/><rect class="cls-4" x="126.25" y="462.9" width="42.08" height="42.08"/><rect class="cls-4" x="126.25" y="504.98" width="42.08" height="42.08"/><rect class="cls-1" x="84.16" y="336.66" width="42.08" height="42.08"/><rect class="cls-3" x="84.16" y="378.74" width="42.08" height="42.08"/><rect class="cls-1" x="84.16" y="420.82" width="42.08" height="42.08"/><rect class="cls-1" x="84.16" y="462.9" width="42.08" height="42.08"/><rect class="cls-2" x="84.16" y="504.98" width="42.08" height="42.08"/><rect class="cls-2" x="84.16" y="547.07" width="42.08" height="42.08"/><rect class="cls-1" x="42.08" y="336.66" width="42.08" height="42.08"/><rect class="cls-3" x="42.08" y="378.74" width="42.08" height="42.08"/><rect class="cls-1" x="42.08" y="420.82" width="42.08" height="42.08"/><rect class="cls-1" x="42.08" y="462.9" width="42.08" height="42.08"/><rect class="cls-2" x="42.08" y="504.98" width="42.08" height="42.08"/><rect class="cls-2" x="42.08" y="547.07" width="42.08" height="42.08"/><rect class="cls-2" y="420.82" width="42.08" height="42.08"/><rect class="cls-4" y="462.9" width="42.08" height="42.08"/><rect class="cls-4" x="126.25" y="547.07" width="42.08" height="42.08"/><rect class="cls-2" x="84.16" y="589.15" width="42.08" height="42.08"/><rect class="cls-2" x="42.08" y="589.15" width="42.08" height="42.08"/><rect class="cls-4" y="504.98" width="42.08" height="42.08"/><rect class="cls-4" x="168.33" y="589.15" width="42.08" height="42.08"/><rect class="cls-4" x="210.41" y="631.23" width="42.08" height="42.08"/></g></g></svg>